<svg preserveAspectRatio="none" overflow="visible" style="display: block;" width="24" height="24" viewBox="0 0 24 24" fill="none" xmlns="http://www.w3.org/2000/svg">
<g id="expand-outline">
<path id="Vector" d="M11.25 18.77V15C11.25 14.79 11.32 14.61 11.47 14.47C11.61 14.33 11.79 14.25 12 14.25C12.21 14.25 12.39 14.32 12.53 14.47C12.67 14.61 12.75 14.79 12.75 15V18.75L14.28 17.21C14.43 17.06 14.61 16.99 14.82 16.98C15.03 16.98 15.21 17.05 15.37 17.21C15.53 17.37 15.6 17.55 15.6 17.75C15.6 17.95 15.52 18.14 15.37 18.29L12.64 21.02C12.55 21.11 12.45 21.18 12.34 21.22C12.24 21.26 12.12 21.28 12 21.28C11.88 21.28 11.77 21.26 11.66 21.22C11.56 21.18 11.46 21.12 11.36 21.02L8.62 18.28C8.47 18.13 8.4 17.95 8.4 17.75C8.4 17.55 8.48 17.37 8.64 17.21C8.8 17.05 8.97 16.98 9.17 16.98C9.37 16.98 9.55 17.06 9.7 17.21L11.24 18.77H11.25ZM5.25 12.75L6.79 14.28C6.94 14.43 7.01 14.61 7.02 14.82C7.02 15.03 6.95 15.21 6.79 15.37C6.63 15.53 6.45 15.6 6.25 15.6C6.05 15.6 5.86 15.52 5.71 15.37L2.98 12.64C2.89 12.55 2.82 12.45 2.78 12.34C2.74 12.24 2.72 12.12 2.72 12C2.72 11.88 2.74 11.77 2.78 11.66C2.82 11.56 2.88 11.46 2.98 11.36L5.71 8.63C5.86 8.48 6.04 8.41 6.24 8.4C6.44 8.4 6.62 8.47 6.78 8.63C6.94 8.79 7.01 8.96 7.01 9.16C7.01 9.36 6.93 9.54 6.78 9.69L5.24 11.23H9.01C9.22 11.23 9.4 11.3 9.54 11.45C9.68 11.59 9.76 11.77 9.76 11.98C9.76 12.19 9.69 12.37 9.54 12.51C9.4 12.65 9.22 12.73 9.01 12.73H5.26L5.25 12.75ZM18.77 12.75H15C14.79 12.75 14.61 12.68 14.47 12.53C14.33 12.39 14.25 12.21 14.25 12C14.25 11.79 14.32 11.61 14.47 11.47C14.61 11.33 14.79 11.25 15 11.25H18.75L17.21 9.72C17.06 9.57 16.99 9.39 16.98 9.18C16.98 8.97 17.05 8.79 17.21 8.63C17.37 8.47 17.55 8.4 17.75 8.4C17.95 8.4 18.14 8.48 18.29 8.63L21.02 11.36C21.11 11.45 21.18 11.55 21.22 11.66C21.26 11.76 21.28 11.88 21.28 12C21.28 12.12 21.26 12.23 21.22 12.34C21.18 12.44 21.12 12.54 21.02 12.64L18.28 15.38C18.13 15.53 17.96 15.6 17.76 15.6C17.56 15.6 17.38 15.52 17.23 15.36C17.07 15.2 17 15.03 17 14.83C17 14.63 17.08 14.45 17.23 14.3L18.77 12.76V12.75ZM11.25 5.23L9.69 6.79C9.54 6.94 9.37 7.01 9.17 7.02C8.97 7.02 8.79 6.95 8.64 6.79C8.49 6.63 8.41 6.46 8.41 6.26C8.41 6.06 8.49 5.88 8.64 5.73L11.37 2.99C11.46 2.9 11.56 2.83 11.67 2.79C11.77 2.75 11.89 2.73 12.01 2.73C12.13 2.73 12.24 2.75 12.35 2.79C12.45 2.83 12.55 2.89 12.65 2.99L15.39 5.73C15.54 5.88 15.61 6.05 15.62 6.25C15.62 6.45 15.55 6.63 15.39 6.78C15.23 6.94 15.06 7.01 14.86 7.01C14.66 7.01 14.48 6.93 14.33 6.78L12.77 5.24V9.01C12.77 9.22 12.7 9.4 12.55 9.54C12.41 9.68 12.23 9.76 12.02 9.76C11.81 9.76 11.63 9.69 11.49 9.54C11.35 9.4 11.27 9.22 11.27 9.01V5.24L11.25 5.23Z" fill="#1B1F28"/>
</g>
</svg>
